<svg width="20" height="16" viewBox="0 0 20 16" fill="none" xmlns="http://www.w3.org/2000/svg">
<path d="M16.9231 4.02324H3.07692C1.92987 4.02324 1 4.83553 1 5.83755V13.0948C1 14.0968 1.92987 14.9091 3.07692 14.9091H16.9231C18.0701 14.9091 19 14.0968 19 13.0948V5.83755C19 4.83553 18.0701 4.02324 16.9231 4.02324Z" stroke="white" stroke-width="1.68268" stroke-linejoin="round"/>
<path d="M16.7223 4.02324V2.8893C16.7222 2.61118 16.6518 2.33651 16.5162 2.08489C16.3806 1.83326 16.1831 1.61089 15.9378 1.43363C15.6924 1.25636 15.4054 1.12858 15.097 1.0594C14.7886 0.990222 14.4666 0.981347 14.1538 1.03341L2.75846 2.73243C2.2636 2.81482 1.81716 3.04547 1.49615 3.38462C1.17513 3.72377 0.999659 4.15014 1 4.59021V6.44232" stroke="white" stroke-width="1.68268" stroke-linejoin="round"/>
<path d="M14.8462 10.6757C14.5723 10.6757 14.3046 10.6048 14.0769 10.4719C13.8492 10.339 13.6717 10.15 13.5669 9.92903C13.4621 9.70802 13.4347 9.46482 13.4881 9.23019C13.5416 8.99557 13.6734 8.78005 13.8671 8.61089C14.0607 8.44173 14.3074 8.32653 14.576 8.27986C14.8446 8.23319 15.123 8.25715 15.376 8.34869C15.629 8.44024 15.8453 8.59527 15.9974 8.79418C16.1496 8.99309 16.2308 9.22694 16.2308 9.46616C16.2308 9.78695 16.0849 10.0946 15.8252 10.3214C15.5656 10.5483 15.2134 10.6757 14.8462 10.6757Z" fill="white"/>
</svg>
