<svg width="20" height="18" viewBox="0 0 20 18" fill="none" xmlns="http://www.w3.org/2000/svg">
<path d="M6.78538 16.9098C7.18478 16.9098 7.50855 16.586 7.50855 16.1866C7.50855 15.7872 7.18478 15.4634 6.78538 15.4634C6.38599 15.4634 6.06221 15.7872 6.06221 16.1866C6.06221 16.586 6.38599 16.9098 6.78538 16.9098Z" stroke="white" stroke-width="1.51423" stroke-linecap="round" stroke-linejoin="round"/>
<path d="M16.9098 16.9098C17.3092 16.9098 17.6329 16.586 17.6329 16.1866C17.6329 15.7872 17.3092 15.4634 16.9098 15.4634C16.5104 15.4634 16.1866 15.7872 16.1866 16.1866C16.1866 16.586 16.5104 16.9098 16.9098 16.9098Z" stroke="white" stroke-width="1.51423" stroke-linecap="round" stroke-linejoin="round"/>
<path d="M1 1H3.89269L6.0622 13.2939H17.633" stroke="white" stroke-width="1.51423" stroke-linecap="round" stroke-linejoin="round"/>
<path d="M6.0622 10.4012H17.3365C17.4201 10.4013 17.5011 10.3724 17.5658 10.3194C17.6305 10.2664 17.6748 10.1926 17.6913 10.1106L18.993 3.60206C19.0035 3.54958 19.0022 3.49542 18.9892 3.44349C18.9763 3.39156 18.9519 3.34316 18.918 3.30178C18.884 3.26039 18.8413 3.22706 18.7929 3.20419C18.7445 3.18132 18.6917 3.16947 18.6382 3.16951H4.61586" stroke="white" stroke-width="1.51423" stroke-linecap="round" stroke-linejoin="round"/>
</svg>
