<svg width="220" height="95" viewBox="0 0 220 95" fill="none" xmlns="http://www.w3.org/2000/svg">
<path d="M2.42047 38.1128C2.48069 38.1263 2.60823 38.1593 2.8031 38.2117C3.00381 38.2569 3.223 38.2905 3.46067 38.3124L2.5591 29.1574L0.982877 28.7958C0.799435 28.461 0.685383 28.0668 0.640719 27.6132C0.60435 27.2439 0.630109 26.9076 0.717996 26.6043C1.17227 26.4343 1.72334 26.284 2.37121 26.1534C3.02491 26.0156 3.65946 25.9158 4.27484 25.8539C5.1882 25.762 6.00137 25.7488 6.71437 25.8145C7.10014 26.4104 7.69594 27.5446 8.50175 29.2171C9.31404 30.889 10.3092 33.0888 11.4871 35.8166L11.6504 35.7806C11.3049 34.1991 10.9324 32.3424 10.5327 30.2102C10.1388 28.0709 9.90267 26.6028 9.82419 25.8059C10.1457 25.6165 10.5096 25.4588 10.9159 25.3329C11.3215 25.2005 11.6993 25.1167 12.0491 25.0815C12.6191 25.0241 13.1779 25.0857 13.7256 25.2661L13.9928 37.6453C14.3775 38.0973 14.6442 38.6463 14.7929 39.2922C14.556 39.6105 14.1735 39.878 13.6453 40.0947C13.1229 40.3043 12.5573 40.4397 11.9484 40.501C11.4756 40.5486 11.04 40.5433 10.6418 40.4853C10.25 40.4265 9.93736 40.3075 9.70382 40.1281C9.66244 39.6416 9.66084 39.1935 9.69901 38.784C9.11748 37.861 8.54256 36.8392 7.97428 35.7186C7.41183 34.5909 6.68866 33.0932 5.80476 31.2257L5.26047 30.0831L5.20313 30.0986C5.4387 31.0957 5.7312 32.5712 6.08063 34.5252C6.42942 36.4727 6.64848 37.9 6.73781 38.8071C6.80927 39.5328 6.64618 40.1021 6.24855 40.515C5.85739 40.9274 5.20513 41.1795 4.29177 41.2714C4.00675 41.3001 3.69687 41.2756 3.36214 41.1981C3.02741 41.1205 2.71896 41.0109 2.43678 40.8691C2.16044 40.7203 1.96248 40.57 1.84288 40.4185C1.79695 39.952 1.82449 39.501 1.92553 39.0655C2.02657 38.6301 2.19155 38.3125 2.42047 38.1128ZM16.401 36.4902C16.6314 36.5717 16.8619 36.6532 17.0923 36.7347C17.3286 36.8091 17.5876 36.8812 17.8692 36.951C17.9025 36.8233 17.906 36.6267 17.8798 36.361C17.862 36.1796 17.845 36.0407 17.829 35.9441C17.7539 35.4478 17.6274 34.695 17.4495 33.6856C17.2672 32.6309 17.1237 31.7718 17.0191 31.1083C16.9145 30.4449 16.8329 29.8151 16.7742 29.2191C16.7563 29.0377 16.7379 28.7843 16.7189 28.4591L16.7031 27.9994L15.2352 27.9409C15.1274 27.7097 15.0368 27.4538 14.9634 27.1733C14.8893 26.8863 14.8389 26.6067 14.8121 26.3346C14.7917 26.1273 14.7856 25.8989 14.7937 25.6494C15.5417 25.2732 16.4988 24.9609 17.6649 24.7127C18.8311 24.4645 20.0425 24.2772 21.2992 24.1508C22.5689 24.023 23.4488 23.9901 23.939 24.052L23.9477 24.0413C24.3179 24.2135 24.6438 24.3999 24.9252 24.6006C25.2125 24.7942 25.4916 25.0376 25.7625 25.331C25.8066 25.778 25.8022 26.2987 25.7495 26.8929C25.7027 27.4799 25.619 28.0249 25.4984 28.5278C25.3843 29.03 25.2497 29.3903 25.0946 29.6088C24.9461 29.6957 24.7831 29.7677 24.6056 29.8248C24.4274 29.8755 24.2088 29.9138 23.9497 29.9399C23.6776 29.9673 23.4684 29.9687 23.322 29.9442C23.1822 29.919 23.0268 29.8692 22.8559 29.7948L22.2854 27.3886C22.0671 27.3648 21.8058 27.3682 21.5013 27.3988C21.2293 27.4262 20.9426 27.4714 20.6413 27.5344C20.6519 27.8409 20.6787 28.3453 20.7217 29.0476C20.7591 29.5608 20.7885 30.0584 20.8098 30.5405L20.8986 32.2393C22.46 31.8859 23.7581 31.5492 24.793 31.2291C25.0897 31.5853 25.2678 32.0647 25.3271 32.6673C25.366 33.0625 25.3515 33.4467 25.2836 33.82C25.2157 34.1932 25.1269 34.4541 25.0172 34.6025C24.8196 34.6551 24.5556 34.6981 24.2252 34.7313C23.7329 34.7808 23.2005 34.7886 22.628 34.7546C22.0614 34.7135 21.5171 34.6341 20.9953 34.5165C21.0132 35.097 21.0195 35.6591 21.0142 36.2027C21.0063 36.7204 20.9693 37.1756 20.9033 37.5683C20.8432 37.9539 20.7232 38.2964 20.5433 38.5959C20.3122 38.9725 19.9976 39.2658 19.5996 39.476C19.2081 39.6855 18.7759 39.8141 18.3031 39.8616C17.8691 39.9053 17.4316 39.8479 16.9908 39.6894C16.5564 39.5303 16.1829 39.2243 15.8701 38.7716C15.8351 38.3498 15.8496 37.9656 15.9136 37.6189C15.984 37.2715 16.1465 36.8953 16.401 36.4902ZM29.1131 35.2406C29.6045 35.3809 29.9913 35.4892 30.2736 35.5655C30.5559 35.6418 30.8498 35.7039 31.1555 35.7516C31.2186 35.5293 31.232 35.2335 31.1956 34.8642C31.1465 34.3654 31.0209 33.4554 30.8189 32.1343C30.5404 30.3695 30.3546 29.0141 30.2614 28.0682C30.197 27.4138 30.1609 26.8481 30.1532 26.3713L28.5404 26.4354L28.8127 29.4997C28.3428 29.7105 27.8035 29.8466 27.1945 29.9079C27.0391 29.9235 26.9222 29.932 26.8438 29.9333C26.6134 29.7864 26.3638 29.5432 26.0949 29.2039C25.8324 28.8639 25.6044 28.4746 25.4107 28.036C25.2171 27.5975 25.0995 27.1676 25.058 26.7465C24.9866 26.0208 25.0519 25.4548 25.2539 25.0484C25.4559 24.6421 25.7669 24.3458 26.1869 24.1596C26.6062 23.9669 27.1764 23.8114 27.8974 23.693C29.0182 23.5148 30.3381 23.3329 31.8572 23.1474C33.3821 22.9547 34.8409 22.7883 36.2336 22.6482C36.4451 22.869 36.6108 23.1239 36.7308 23.4128C36.8574 23.701 36.9353 23.9942 36.9646 24.2922C37.0195 24.8494 36.9229 25.3303 36.6749 25.7347C36.4269 26.1392 36.0244 26.3694 35.4673 26.4255C35.1045 26.462 34.6609 26.4412 34.1364 26.3631C34.3197 29.42 34.4282 32.2489 34.4619 34.8497C34.4657 35.3531 34.4346 35.8012 34.3686 36.1939C34.3026 36.5866 34.1767 36.9362 33.991 37.2428C33.7599 37.6194 33.4194 37.9154 32.9696 38.1308C32.5198 38.3462 32.0131 38.4822 31.4496 38.5389C30.9184 38.5924 30.3845 38.5512 29.8477 38.4154C29.3175 38.279 28.8979 37.9712 28.5891 37.4919C28.5541 37.0701 28.5692 36.6923 28.6345 36.3586C28.6991 36.0184 28.8586 35.6457 29.1131 35.2406Z" fill="white"/>
<path d="M28.4844 56.2812C27.7344 53.1875 27.0729 50.599 26.5 48.5156C25.9271 46.4219 25.4688 45.1198 25.125 44.6094L23.5625 44.5C23.2604 43.7083 23.0469 42.7344 22.9219 41.5781C23.099 41.0052 23.4323 40.5104 23.9219 40.0938C24.4115 39.6667 24.9844 39.3438 25.6406 39.125C26.2969 38.9062 26.9583 38.7969 27.625 38.7969C29.1458 38.7969 30.2812 39.4948 31.0312 40.8906C31.375 41.526 31.6667 42.2917 31.9062 43.1875C32.1458 44.0729 32.3698 45.125 32.5781 46.3438C32.9219 48.3958 33.1615 50.2396 33.2969 51.875C33.4323 53.5 33.5417 55.2292 33.625 57.0625L33.6875 58.4688H33.9219C34.1823 57.8958 34.4688 56.6615 34.7812 54.7656C35.0938 52.8698 35.3646 50.8646 35.5938 48.75C35.8229 46.625 35.9479 45.0469 35.9688 44.0156L34 43.7188C33.8542 43.1667 33.7604 42.6719 33.7188 42.2344C33.6771 41.7969 33.6562 41.2656 33.6562 40.6406C33.875 40.3698 34.2396 40.0885 34.75 39.7969C35.2604 39.5052 35.8542 39.2604 36.5312 39.0625C37.2083 38.8646 37.8802 38.7656 38.5469 38.7656C39.4427 38.7656 40.25 38.9167 40.9688 39.2188C41.6979 39.5104 42.276 39.9479 42.7031 40.5312C43.1406 41.1146 43.3646 41.8281 43.375 42.6719V45.0781C43.8438 46.901 44.25 49.0417 44.5938 51.5C44.9479 53.9479 45.2083 56.2656 45.375 58.4531H45.5469C45.7969 57.8698 46.0781 56.6302 46.3906 54.7344C46.7135 52.8281 46.9948 50.8229 47.2344 48.7188C47.474 46.6042 47.599 45.0365 47.6094 44.0156L45.7656 43.7188C45.6198 43.1667 45.526 42.6719 45.4844 42.2344C45.4427 41.7969 45.4219 41.2656 45.4219 40.6406C45.6302 40.3698 45.9948 40.0885 46.5156 39.7969C47.0365 39.5052 47.6354 39.2604 48.3125 39.0625C49 38.8646 49.6771 38.7656 50.3438 38.7656C51.7083 38.7656 52.7292 39.1198 53.4062 39.8281C54.0833 40.5365 54.4219 41.6146 54.4219 43.0625C54.4219 44.4375 54.1927 46.2083 53.7344 48.375C53.276 50.5417 52.7031 52.5781 52.0156 54.4844C51.4219 56.151 50.8385 57.5938 50.2656 58.8125C49.6927 60.0208 48.9844 61.2083 48.1406 62.375C47.7969 62.7292 47.3438 62.974 46.7812 63.1094C46.2292 63.2448 45.6562 63.3125 45.0625 63.3125C43.0104 63.3125 41.4948 62.9167 40.5156 62.125L40.9375 58.9219L39.9219 53.6562C39.6823 52.2708 39.526 51.1667 39.4531 50.3438L39.25 50.3281L39.2031 52.3125C38.8594 54.3542 38.4375 56.25 37.9375 58C37.4479 59.7396 36.8854 61.1979 36.25 62.375C35.9479 62.7188 35.5312 62.9583 35 63.0938C34.4688 63.2396 33.9271 63.3125 33.375 63.3125C31.2396 63.3125 29.7344 62.9219 28.8594 62.1406L29.2031 59.2031L28.4844 56.2812ZM55.7969 53.9219C55.7969 52.1198 56.099 50.5104 56.7031 49.0938C57.3073 47.6771 58.2396 46.5573 59.5 45.7344C60.7708 44.901 62.3542 44.4844 64.25 44.4844C65.2396 44.4844 66.2292 44.6042 67.2188 44.8438C68.2083 45.0729 69.0469 45.4583 69.7344 46C70.3698 46.5104 70.8281 47.1875 71.1094 48.0312C71.401 48.8646 71.5469 49.7917 71.5469 50.8125C71.5469 51.4896 71.4896 52.1823 71.375 52.8906C71.25 53.099 71.0052 53.375 70.6406 53.7188C70.276 54.0521 69.849 54.3802 69.3594 54.7031C68.8698 55.026 68.3958 55.276 67.9375 55.4531C67.5 55.4844 67.0469 55.5 66.5781 55.5C65.7552 55.5 64.9219 55.4635 64.0781 55.3906C63.2344 55.3177 62.4948 55.2344 61.8594 55.1406C61.9427 56.026 62.2135 56.7969 62.6719 57.4531C63.1302 58.1094 63.8594 58.4375 64.8594 58.4375C64.9531 58.4375 65.1042 58.4271 65.3125 58.4062C65.9479 58.3438 66.6875 58.1771 67.5312 57.9062C68.3854 57.625 69.2344 57.3021 70.0781 56.9375C70.474 57.3333 70.7656 57.7292 70.9531 58.125C71.1406 58.5208 71.2708 59.0885 71.3438 59.8281C71.0208 60.2031 70.4948 60.6615 69.7656 61.2031C69.0469 61.7448 68.1667 62.2344 67.125 62.6719C66.0833 63.099 64.9948 63.3125 63.8594 63.3125C62.151 63.3125 60.6875 62.901 59.4688 62.0781C58.2604 61.2448 57.3438 60.1198 56.7188 58.7031C56.1042 57.276 55.7969 55.6823 55.7969 53.9219ZM65.8594 50.3281C65.7135 50.1719 65.4688 50.0521 65.125 49.9688C64.7812 49.875 64.4219 49.8281 64.0469 49.8281C63.7448 49.8281 63.4375 49.8542 63.125 49.9062C62.8229 49.9583 62.6406 50.0156 62.5781 50.0781C62.224 50.776 62 51.5677 61.9062 52.4531L66.0781 52.0469L65.8594 50.3281ZM78.6406 52.7031C79.2552 52.7031 79.9323 52.7656 80.6719 52.8906C81.4219 53.0156 82.1094 53.1667 82.7344 53.3438V52.8594C82.7344 52.5365 82.724 52.1771 82.7031 51.7812C82.6927 51.3854 82.6719 51.125 82.6406 51C82.5469 50.8229 82.276 50.6406 81.8281 50.4531C81.3906 50.2656 80.6719 50.1719 79.6719 50.1719C79.0573 50.1719 78.4219 50.25 77.7656 50.4062C77.1198 50.5521 76.401 50.75 75.6094 51C75.1823 50.2917 74.8385 49.6198 74.5781 48.9844C74.3281 48.3385 74.2031 47.6927 74.2031 47.0469C74.2031 46.849 74.2188 46.651 74.25 46.4531C75.9375 45.1406 78.1198 44.4844 80.7969 44.4844C82.276 44.4844 83.5885 44.651 84.7344 44.9844C85.8802 45.3177 86.8229 45.9635 87.5625 46.9219C88.3021 47.8802 88.6719 49.2396 88.6719 51C88.6719 52.7188 88.4688 54.3854 88.0625 56C87.6667 57.6042 87.4635 58.4219 87.4531 58.4531L89.7188 57.4844C90.0208 57.8073 90.2865 58.2031 90.5156 58.6719C90.7552 59.1302 90.9062 59.6615 90.9688 60.2656C90.8229 60.5781 90.5052 60.9792 90.0156 61.4688C89.526 61.9479 88.9271 62.375 88.2188 62.75C87.5104 63.125 86.7708 63.3125 86 63.3125C85.1354 63.3125 84.4792 63.0573 84.0312 62.5469C83.5938 62.0365 83.375 61.375 83.375 60.5625C83.375 60.1042 83.4427 59.6406 83.5781 59.1719L83.1094 59.0312C82.8177 60.6771 82.1979 61.8021 81.25 62.4062C80.3021 63.0104 79.2552 63.3125 78.1094 63.3125C77.3594 63.3125 76.6354 63.1042 75.9375 62.6875C75.2396 62.2604 74.6719 61.6458 74.2344 60.8438C73.7969 60.0312 73.5781 59.0833 73.5781 58C73.5781 56.2708 74.0104 54.9583 74.875 54.0625C75.7396 53.1562 76.9948 52.7031 78.6406 52.7031ZM80.4219 58.6562C80.6823 58.6042 80.9896 58.4583 81.3438 58.2188C81.7083 57.9792 82.0312 57.6927 82.3125 57.3594C82.5938 57.026 82.7604 56.7083 82.8125 56.4062L82.7188 56.0312C82.1667 55.9583 81.5781 55.9219 80.9531 55.9219C80.4219 55.9219 80.0573 55.9635 79.8594 56.0469C79.526 56.4219 79.3594 56.8385 79.3594 57.2969C79.3594 57.6302 79.4427 57.9323 79.6094 58.2031C79.7865 58.474 80.0573 58.625 80.4219 58.6562ZM91.3281 42.5625C91.1719 41.9271 91.0677 41.401 91.0156 40.9844C90.9635 40.5573 90.9427 40.0677 90.9531 39.5156C91.1719 39.2344 91.5104 38.9531 91.9688 38.6719C92.4375 38.3802 92.9792 38.1354 93.5938 37.9375C94.2188 37.7396 94.8646 37.6406 95.5312 37.6406C96.8333 37.6406 97.8333 37.9688 98.5312 38.625C99.2292 39.2812 99.5781 40.25 99.5781 41.5312C99.5781 42.4479 99.5 43.9219 99.3438 45.9531C99.1875 47.9844 98.9635 50.1458 98.6719 52.4375C98.3802 54.7188 98.0469 56.7135 97.6719 58.4219L97.7031 58.4531L100.016 57.4844C100.828 58.1823 101.302 59.1094 101.438 60.2656C101.438 60.3385 101.203 60.6406 100.734 61.1719C100.266 61.6927 99.6458 62.1823 98.875 62.6406C98.1146 63.0885 97.2396 63.3125 96.25 63.3125C95.2188 63.3125 94.3802 63.026 93.7344 62.4531C93.099 61.8802 92.7969 60.901 92.8281 59.5156L92.8594 56.7031C92.8698 54.0365 92.8958 51.6354 92.9375 49.5C92.9896 47.3646 93.0938 45.1615 93.25 42.8906L91.3281 42.5625ZM103.984 54.375C103.984 52.6771 104.01 51.1302 104.062 49.7344L102.359 49.4375C102.224 48.9167 102.13 48.4583 102.078 48.0625C102.026 47.6667 102 47.2448 102 46.7969L102.031 46.4844C102.062 46.3385 102.078 46.2188 102.078 46.125L104.344 45.625C104.396 44.9792 104.516 44.25 104.703 43.4375C104.891 42.625 105.089 42.026 105.297 41.6406C105.63 41.3906 106.031 41.2031 106.5 41.0781C106.969 40.9531 107.474 40.8906 108.016 40.8906C108.474 40.8906 108.917 40.9375 109.344 41.0312C109.781 41.1146 110.161 41.2292 110.484 41.375C110.516 41.7292 110.531 42.1354 110.531 42.5938C110.531 43.3438 110.495 44.1927 110.422 45.1406L113.172 44.6406C113.557 45.3073 113.75 46.0312 113.75 46.8125C113.75 47.3542 113.682 47.8438 113.547 48.2812C113.422 48.7188 113.245 49.2135 113.016 49.7656C112.328 49.8802 111.385 49.9531 110.188 49.9844C110.042 51.6823 109.719 54.1771 109.219 57.4688L109.141 58L109.172 58.0312L112.844 56.8906C113.604 57.526 114.068 58.5052 114.234 59.8281C114.234 59.901 113.896 60.2448 113.219 60.8594C112.552 61.4635 111.714 62.026 110.703 62.5469C109.693 63.0573 108.594 63.3125 107.406 63.3125C105.333 63.3125 104.229 62.0469 104.094 59.5156C104.021 58.2344 103.984 56.5208 103.984 54.375ZM116.25 52.8438C116.25 48.0104 116.344 44.6875 116.531 42.875L114.766 42.5625C114.516 41.6042 114.391 40.5729 114.391 39.4688C114.547 39.2708 114.839 39.026 115.266 38.7344C115.693 38.4427 116.188 38.1875 116.75 37.9688C117.323 37.75 117.891 37.6406 118.453 37.6406C119.734 37.6406 120.688 37.9688 121.312 38.625C121.938 39.2812 122.25 40.2865 122.25 41.6406C122.25 42.2344 122.198 43.1927 122.094 44.5156C121.99 45.8281 121.839 47.2396 121.641 48.75C121.443 50.25 121.214 51.5885 120.953 52.7656C120.953 52.8281 120.99 52.8854 121.062 52.9375C121.135 52.9896 121.214 53.0156 121.297 53.0156C121.391 53.0156 121.453 52.9792 121.484 52.9062C121.901 51.25 122.318 49.8646 122.734 48.75C123.151 47.6354 123.781 46.6458 124.625 45.7812C125.469 44.9167 126.562 44.4844 127.906 44.4844C129.573 44.4844 130.771 44.9948 131.5 46.0156C132.229 47.026 132.594 48.3021 132.594 49.8438C132.594 51.2188 132.432 52.5469 132.109 53.8281C131.786 55.099 131.385 56.4271 130.906 57.8125C130.927 57.7604 130.854 57.9635 130.688 58.4219L130.719 58.4531L133.031 57.4844C133.844 58.1823 134.318 59.1094 134.453 60.2656C134.453 60.3385 134.219 60.6406 133.75 61.1719C133.281 61.6927 132.661 62.1823 131.891 62.6406C131.13 63.0885 130.255 63.3125 129.266 63.3125C128.276 63.3125 127.469 63.0469 126.844 62.5156C126.219 61.9844 125.906 61.0781 125.906 59.7969C125.906 58.776 125.948 57.4115 126.031 55.7031C126.115 53.9948 126.198 52.6198 126.281 51.5781C126.01 51.2865 125.677 51.1302 125.281 51.1094C124.917 51.5781 124.38 52.5156 123.672 53.9219C122.964 55.3281 122.464 56.3802 122.172 57.0781C122.151 57.224 122.141 57.3646 122.141 57.5C122.141 58.0208 122.219 58.724 122.375 59.6094C122.531 60.4844 122.724 61.3021 122.953 62.0625C122.766 62.4167 122.38 62.7135 121.797 62.9531C121.214 63.1927 120.495 63.3125 119.641 63.3125C118.87 63.3125 118.25 63.25 117.781 63.125C117.323 63 117 62.8698 116.812 62.7344C116.625 62.5885 116.531 62.5 116.531 62.4688C116.521 62.375 116.495 62.1302 116.453 61.7344C116.411 61.3281 116.37 60.7656 116.328 60.0469C116.286 59.3177 116.266 58.4896 116.266 57.5625L116.25 52.8438Z" fill="white"/>
</svg>
