<svg width="220" height="95" viewBox="0 0 220 95" fill="none" xmlns="http://www.w3.org/2000/svg">
<path d="M2.87955 35.7993C2.77555 34.7432 2.69699 33.7795 2.64388 32.908L1.56659 32.8299C1.45048 32.5144 1.36411 32.2352 1.30747 31.9923C1.25084 31.7493 1.2088 31.4886 1.18137 31.21L1.18166 31.0136C1.19216 30.921 1.19454 30.8455 1.18879 30.7872L2.56707 30.3344C2.5599 29.9295 2.58973 29.4684 2.65656 28.9513C2.72339 28.4342 2.80978 28.0493 2.91573 27.7965C3.1077 27.6202 3.34561 27.4785 3.62945 27.3714C3.91329 27.2643 4.22363 27.1938 4.56047 27.1599C4.84549 27.1313 5.12366 27.1327 5.39499 27.1643C5.67216 27.1888 5.91561 27.2363 6.12536 27.3068C6.16648 27.5251 6.20108 27.7768 6.22916 28.0619C6.2751 28.5284 6.30443 29.0587 6.31714 29.6529L7.99663 29.1698C8.27714 29.5603 8.44133 29.9986 8.48918 30.4845C8.52236 30.8214 8.51024 31.1302 8.45283 31.4108C8.4019 31.6907 8.32208 32.0096 8.21339 32.3673C7.79288 32.4816 7.21111 32.5859 6.46809 32.6803C6.4814 33.7455 6.43341 35.3174 6.3241 37.3961L6.30806 37.7314L6.3294 37.7489L8.54293 36.8097C9.05473 37.1574 9.40296 37.7374 9.58764 38.5498C9.5921 38.5952 9.40263 38.8302 9.01923 39.2548C8.64166 39.6723 8.15466 40.0746 7.55822 40.4618C6.96115 40.8425 6.29338 41.07 5.55492 41.1443C4.26586 41.274 3.5017 40.5559 3.26244 38.9899C3.13862 38.1976 3.01099 37.134 2.87955 35.7993ZM9.88659 34.8097C9.77621 33.6888 9.86548 32.6689 10.1544 31.7499C10.4433 30.831 10.9545 30.0762 11.6879 29.4854C12.4271 28.8876 13.3862 28.5294 14.5652 28.4108C15.1806 28.3488 15.8033 28.3614 16.4333 28.4485C17.0628 28.5292 17.6078 28.7164 18.0685 29.0103C18.4949 29.288 18.8214 29.6805 19.048 30.1877C19.2804 30.6878 19.4279 31.2553 19.4904 31.8902C19.5319 32.3114 19.5387 32.7458 19.5108 33.1936C19.4459 33.331 19.3105 33.518 19.1049 33.7546C18.8986 33.9848 18.6531 34.2156 18.3684 34.447C18.0837 34.6785 17.8043 34.8637 17.5302 35.0025C17.26 35.0493 16.9792 35.0874 16.6877 35.1167C16.1759 35.1682 15.6555 35.1977 15.1263 35.2051C14.5972 35.2125 14.1322 35.207 13.7313 35.1884C13.8373 35.7339 14.053 36.1964 14.3782 36.5759C14.7034 36.9555 15.1769 37.1139 15.7988 37.0514C15.8571 37.0455 15.9504 37.0296 16.0787 37.0036C16.47 36.9249 16.9197 36.775 17.4278 36.5537C17.9417 36.3254 18.4499 36.0714 18.9522 35.7918C19.2226 36.0133 19.4283 36.2412 19.5691 36.4757C19.71 36.7102 19.8257 37.0551 19.9163 37.5106C19.7385 37.764 19.4395 38.082 19.0192 38.4646C18.6054 38.8465 18.088 39.206 17.4671 39.5433C16.8454 39.8742 16.1816 40.0751 15.4755 40.1461C14.4132 40.253 13.4779 40.0887 12.6696 39.6531C11.8671 39.2103 11.2282 38.568 10.7527 37.7259C10.2831 36.8767 9.99442 35.9047 9.88659 34.8097ZM15.9239 31.9448C15.8237 31.8568 15.6641 31.7976 15.4452 31.7672C15.2257 31.7304 14.9994 31.7238 14.7662 31.7472C14.5783 31.7661 14.3888 31.8016 14.1977 31.8535C14.013 31.9048 13.9032 31.9518 13.8681 31.9946C13.6906 32.4509 13.5999 32.9573 13.5958 33.5139L16.1652 33.0002L15.9239 31.9448ZM20.9052 33.7011C20.7948 32.5802 20.8841 31.5603 21.173 30.6413C21.4619 29.7224 21.9731 28.9675 22.7065 28.3768C23.4457 27.779 24.4048 27.4208 25.5838 27.3021C25.9854 27.2617 26.4479 27.2414 26.9712 27.2411C27.5003 27.2336 28.0094 27.2544 28.4983 27.3033L28.706 27.4198C29.0173 27.5914 29.247 27.7318 29.3952 27.8413C29.5492 27.9435 29.7144 28.0938 29.8909 28.2919C29.9254 28.6418 29.9244 29.1294 29.8878 29.7547C29.8571 30.3728 29.7963 30.9515 29.7055 31.4906C29.6147 32.0298 29.5118 32.3804 29.3969 32.5424C29.194 32.6741 28.8529 32.764 28.3735 32.8122C28.1403 32.8357 27.9185 32.8417 27.708 32.8301C27.5034 32.8115 27.3464 32.7782 27.237 32.7303L26.8559 30.9529C26.7479 30.8525 26.5158 30.7875 26.1596 30.7579C25.8093 30.7212 25.4883 30.7175 25.1968 30.7468C25.1062 30.756 25.0226 30.7709 24.9461 30.7917C24.8271 31.1112 24.7521 31.5113 24.7209 31.9921C24.6897 32.4729 24.6984 32.9595 24.7469 33.4519C24.8171 34.1646 24.9933 34.7587 25.2757 35.2341C25.5574 35.7031 26.0577 35.9014 26.7767 35.829C27.133 35.7932 27.4771 35.6997 27.8089 35.5485C28.1472 35.3967 28.5702 35.1742 29.0777 34.881C29.2878 34.7552 29.4456 34.6641 29.5513 34.6076C29.8359 34.8407 30.0667 35.0923 30.2438 35.3624C30.4209 35.6325 30.5541 35.9888 30.6434 36.4313C30.2767 36.9589 29.7413 37.5003 29.0371 38.0553C28.3393 38.6097 27.4917 38.9371 26.4941 39.0375C25.4318 39.1444 24.4965 38.98 23.6882 38.5444C22.8857 38.1017 22.2468 37.4593 21.7713 36.6173C21.3017 35.7681 21.013 34.796 20.9052 33.7011ZM32.0229 31.9052C31.7269 28.8989 31.5816 26.8263 31.5872 25.6872L30.4701 25.6033C30.2559 25.0228 30.115 24.3892 30.0474 23.7024C30.1324 23.5696 30.2988 23.3991 30.5465 23.1909C30.7942 22.9828 31.0863 22.7931 31.4227 22.6218C31.7656 22.4499 32.1119 22.3464 32.4617 22.3112C33.2585 22.231 33.8713 22.3755 34.3001 22.7445C34.729 23.1136 34.9849 23.7193 35.0678 24.5616C35.1042 24.9309 35.1305 25.5302 35.1468 26.3596C35.1624 27.1825 35.1549 28.0698 35.1244 29.0217C35.0932 29.9671 35.0327 30.814 34.9428 31.5624C34.9466 31.6013 34.9728 31.6346 35.0214 31.6624C35.0699 31.6903 35.1201 31.7016 35.1719 31.6964C35.2302 31.6905 35.2668 31.6639 35.2818 31.6166C35.4394 30.5604 35.6137 29.6726 35.8045 28.9532C35.9954 28.2339 36.3267 27.579 36.7984 26.9884C37.2701 26.3979 37.9238 26.0605 38.7594 25.9765C39.7959 25.8722 40.5721 26.1147 41.088 26.704C41.6034 27.2869 41.9082 28.0578 42.0027 29.0167C42.0869 29.8719 42.0678 30.7081 41.9455 31.5252C41.8226 32.3359 41.6545 33.187 41.4414 34.0787C41.4512 34.045 41.4183 34.1759 41.3427 34.4715L41.364 34.4889L42.7427 33.7417C43.2908 34.125 43.6423 34.6719 43.7973 35.3826C43.8018 35.428 43.6745 35.6306 43.4156 35.9903C43.156 36.3436 42.8006 36.6869 42.3493 37.0202C41.9038 37.3464 41.3734 37.5404 40.758 37.6023C40.1427 37.6643 39.6244 37.5496 39.2032 37.2582C38.782 36.9669 38.5321 36.4228 38.4536 35.6258C38.3911 34.9909 38.3334 34.1395 38.2806 33.0718C38.2278 32.004 38.1954 31.1435 38.1834 30.4904C37.9971 30.3259 37.7803 30.2496 37.5328 30.2614C37.3348 30.5758 37.0587 31.1925 36.7043 32.1115C36.35 33.0304 36.1035 33.7161 35.9649 34.1685C35.9608 34.2605 35.963 34.3486 35.9713 34.4328C36.0032 34.7568 36.0948 35.1892 36.2462 35.7302C36.397 36.2646 36.5669 36.7612 36.756 37.2198C36.6611 37.4518 36.4396 37.6606 36.0915 37.8461C35.7434 38.0316 35.3038 38.1511 34.7726 38.2046C34.2933 38.2528 33.904 38.2527 33.6049 38.2043C33.3122 38.1552 33.1034 38.0944 32.9785 38.0219C32.853 37.943 32.7893 37.8937 32.7874 37.8743C32.7751 37.8166 32.744 37.666 32.6938 37.4224C32.643 37.1723 32.5826 36.8251 32.5127 36.3806C32.4421 35.9297 32.3784 35.4159 32.3217 34.8393L32.0229 31.9052Z" fill="white"/>
<path d="M24.6406 42.5625C24.4844 41.9271 24.3802 41.401 24.3281 40.9844C24.276 40.5573 24.2552 40.0677 24.2656 39.5156C24.4844 39.2344 24.8229 38.9531 25.2812 38.6719C25.75 38.3802 26.2917 38.1354 26.9062 37.9375C27.5312 37.7396 28.1771 37.6406 28.8438 37.6406C30.1458 37.6406 31.1458 37.9688 31.8438 38.625C32.5417 39.2812 32.8906 40.25 32.8906 41.5312C32.8906 42.4479 32.8125 43.9219 32.6562 45.9531C32.5 47.9844 32.276 50.1458 31.9844 52.4375C31.6927 54.7188 31.3594 56.7135 30.9844 58.4219L31.0156 58.4531L33.3281 57.4844C34.1406 58.1823 34.6146 59.1094 34.75 60.2656C34.75 60.3385 34.5156 60.6406 34.0469 61.1719C33.5781 61.6927 32.9583 62.1823 32.1875 62.6406C31.4271 63.0885 30.5521 63.3125 29.5625 63.3125C28.5312 63.3125 27.6927 63.026 27.0469 62.4531C26.4115 61.8802 26.1094 60.901 26.1406 59.5156L26.1719 56.7031C26.1823 54.0365 26.2083 51.6354 26.25 49.5C26.3021 47.3646 26.4062 45.1615 26.5625 42.8906L24.6406 42.5625ZM36.7344 40.5781C36.7344 39.6615 37.0312 38.9167 37.625 38.3438C38.2292 37.7708 39.1875 37.4844 40.5 37.4844C41.8125 37.4844 42.7656 37.7708 43.3594 38.3438C43.9635 38.9167 44.2656 39.6615 44.2656 40.5781C44.2656 41.099 44.0833 41.5781 43.7188 42.0156C43.3646 42.4531 42.8958 42.8021 42.3125 43.0625C41.7292 43.3125 41.125 43.4375 40.5 43.4375C39.8229 43.4375 39.1927 43.2917 38.6094 43C38.0365 42.6979 37.5781 42.3229 37.2344 41.875C36.901 41.4271 36.7344 40.9948 36.7344 40.5781ZM35.9688 49.5156C35.8333 49.0052 35.7396 48.5417 35.6875 48.125C35.6354 47.6979 35.6094 47.2552 35.6094 46.7969L35.625 46.3594C35.8438 46.0781 36.1823 45.7969 36.6406 45.5156C37.1094 45.224 37.651 44.9792 38.2656 44.7812C38.8906 44.5833 39.5365 44.4844 40.2031 44.4844C41.6615 44.4844 42.6979 44.8125 43.3125 45.4688C43.9271 46.125 44.2344 47.1458 44.2344 48.5312C44.2344 49.3646 44.1146 50.4531 43.875 51.7969C43.6458 53.1406 43.3646 54.4479 43.0312 55.7188C42.7083 56.9792 42.4271 57.8802 42.1875 58.4219L42.2188 58.4531L44.5312 57.6094C44.9479 57.9635 45.2604 58.3542 45.4688 58.7812C45.6875 59.2083 45.8281 59.7031 45.8906 60.2656C45.8906 60.3385 45.6615 60.6406 45.2031 61.1719C44.7448 61.6927 44.1354 62.1823 43.375 62.6406C42.625 63.0885 41.7552 63.3125 40.7656 63.3125C39.7656 63.3125 38.9531 63.0417 38.3281 62.5C37.7135 61.9583 37.4062 61.0312 37.4062 59.7188C37.4062 58.1875 37.4479 56.5625 37.5312 54.8438C37.6146 53.125 37.7448 51.4583 37.9219 49.8438L35.9688 49.5156ZM49.7344 65.2656C49.8073 65.0469 49.8594 64.7656 49.8906 64.4219C49.9323 64.0885 49.9427 63.7604 49.9219 63.4375C49.8906 62.6979 49.8333 61.6823 49.75 60.3906C49.6458 58.6406 49.5677 57.1927 49.5156 56.0469C49.4635 54.901 49.4375 53.8125 49.4375 52.7812C49.4375 52.4271 49.4479 51.9479 49.4688 51.3438L49.4844 50.9688L47.4062 50.6875C47.2604 50.2083 47.1615 49.7396 47.1094 49.2812C47.0677 48.8229 47.0521 48.2656 47.0625 47.6094C47.7292 47.2552 48.6458 46.9375 49.8125 46.6562L49.875 46.4062C49.1771 45.7812 48.625 45.099 48.2188 44.3594C47.8125 43.6198 47.6094 42.8438 47.6094 42.0312C47.6094 41.0938 47.8698 40.2969 48.3906 39.6406C48.9115 38.974 49.6406 38.474 50.5781 38.1406C51.526 37.8073 52.6354 37.6406 53.9062 37.6406C54.6562 37.6406 55.4062 37.6823 56.1562 37.7656C56.9167 37.8385 57.8333 38.026 58.9062 38.3281C59.0521 38.7656 59.125 39.276 59.125 39.8594C59.125 40.5156 59.0417 41.1979 58.875 41.9062C58.7188 42.6042 58.5 43.2083 58.2188 43.7188C57.2083 43.3958 56.3958 43.151 55.7812 42.9844C55.1771 42.8177 54.5104 42.6823 53.7812 42.5781C53.625 42.6094 53.4792 42.6927 53.3438 42.8281C53.2188 42.9531 53.1458 43.0729 53.125 43.1875C53.2188 43.6667 53.4167 44.224 53.7188 44.8594C54.0312 45.4948 54.3802 46.0729 54.7656 46.5938L59.1094 45.7969C59.474 46.3385 59.6562 47.1146 59.6562 48.125C59.6562 48.7396 59.5885 49.3281 59.4531 49.8906C59.3281 50.4531 59.1719 50.8385 58.9844 51.0469C58.849 51.0573 58.651 51.0625 58.3906 51.0625C57.3802 51.0625 56.4583 50.9375 55.625 50.6875C55.5833 51.9167 55.5469 52.7917 55.5156 53.3125C55.5052 53.7083 55.4792 54.375 55.4375 55.3125L55.3438 57.8906C55.2917 59.3802 55.2396 60.6094 55.1875 61.5781C55.1354 62.5469 55.0573 63.474 54.9531 64.3594C54.8594 65.2031 54.7292 65.9219 54.5625 66.5156C54.4062 67.1198 54.1615 67.6458 53.8281 68.0938C53.0052 69.1979 51.651 69.75 49.7656 69.75C49.0156 69.75 48.2656 69.6042 47.5156 69.3125C46.776 69.0312 46.2031 68.5729 45.7969 67.9375C45.776 67.3125 45.8698 66.6823 46.0781 66.0469C46.276 65.4219 46.5781 64.8854 46.9844 64.4375L49.7344 65.2656ZM62.3594 54.375C62.3594 52.6771 62.3854 51.1302 62.4375 49.7344L60.7344 49.4375C60.599 48.9167 60.5052 48.4583 60.4531 48.0625C60.401 47.6667 60.375 47.2448 60.375 46.7969L60.4062 46.4844C60.4375 46.3385 60.4531 46.2188 60.4531 46.125L62.7188 45.625C62.7708 44.9792 62.8906 44.25 63.0781 43.4375C63.2656 42.625 63.4635 42.026 63.6719 41.6406C64.0052 41.3906 64.4062 41.2031 64.875 41.0781C65.3438 40.9531 65.849 40.8906 66.3906 40.8906C66.849 40.8906 67.2917 40.9375 67.7188 41.0312C68.1562 41.1146 68.5365 41.2292 68.8594 41.375C68.8906 41.7292 68.9062 42.1354 68.9062 42.5938C68.9062 43.3438 68.8698 44.1927 68.7969 45.1406L71.5469 44.6406C71.9323 45.3073 72.125 46.0312 72.125 46.8125C72.125 47.3542 72.0573 47.8438 71.9219 48.2812C71.7969 48.7188 71.6198 49.2135 71.3906 49.7656C70.7031 49.8802 69.7604 49.9531 68.5625 49.9844C68.4167 51.6823 68.0938 54.1771 67.5938 57.4688L67.5156 58L67.5469 58.0312L71.2188 56.8906C71.9792 57.526 72.4427 58.5052 72.6094 59.8281C72.6094 59.901 72.2708 60.2448 71.5938 60.8594C70.9271 61.4635 70.0885 62.026 69.0781 62.5469C68.0677 63.0573 66.9688 63.3125 65.7812 63.3125C63.7083 63.3125 62.6042 62.0469 62.4688 59.5156C62.3958 58.2344 62.3594 56.5208 62.3594 54.375Z" fill="white"/>
</svg>
